<?xml version="1.0"?>
<svg xmlns="http://www.w3.org/2000/svg" xmlns:xlink="http://www.w3.org/1999/xlink" version="1.1" id="Capa_1" x="0px" y="0px" viewBox="0 0 183.294 183.294" style="enable-background:new 0 0 183.294 183.294;" xml:space="preserve" width="512px" height="512px"><g><path d="M4.461,183.294c-0.063,0-0.125-0.002-0.188-0.007c-1.042-0.079-1.926-0.796-2.215-1.801  c-0.074-0.258-1.813-6.432-0.883-15.08c0.691-6.433,3.784-11.977,6.513-16.869c1.028-1.843,2-3.584,2.764-5.231  c2.093-4.513,1.244-10.474,0.424-16.237c-0.161-1.13-0.32-2.252-0.459-3.361c-0.07-0.56-0.165-1.242-0.275-2.036  c-1.295-9.339-4.736-34.148,4.145-57.942c9.884-26.481,35.009-41.932,39.546-43.876c1.431-0.613,1.854-1.189,1.877-1.408  c0.037-0.339-0.44-1.628-3.055-3.496c-3.713-2.652-11.849-4.701-14.67-5.267c-0.938-0.188-1.686-0.895-1.928-1.82  c-0.241-0.925,0.066-1.907,0.792-2.53c0.487-0.417,3.411-2.632,13.226-5.31C60.905-1.93,71.126,1.887,86.599,7.665  c9.461,3.533,14.397,4.004,19.624,4.503c4.675,0.446,9.509,0.907,17.555,3.448c19.863,6.272,34,18.027,37.86,21.48  c5.237,4.687,5.309,10.667,4.271,14.521c15.881,8.414,16.229,10.419,16.42,11.515c0.269,1.545-0.316,3.247-1.648,4.79  c-1.455,1.685-4.096,3.461-7.273,3.377c-1.819-0.046-5.026-0.821-9.087-1.802c-4.509-1.09-10.121-2.446-14.561-2.918  c-6.104-0.65-11.594,0.531-19.901,2.32c-2.386,0.514-4.979,1.072-7.855,1.643c-9.764,1.939-18.263,0.726-22.354-0.136  c-1.03,3-3.652,8.314-10.25,16.962c-11.184,14.66-22.964,14.923-23.46,14.927c-0.957,0.002-1.813-0.518-2.245-1.359  c-0.431-0.84-0.352-1.853,0.206-2.616c0.033-0.046,3.771-5.301,5.24-13.783c0.95-5.492,0.392-9.936-0.126-12.403  c-4.448,1.124-14.59,4.146-22.584,9.966c-9.604,6.991-15.782,23.776-17.646,37.309c-1.075,7.811-0.305,12.897,2.061,13.606  c0.622,0.186,1.297,0.165,2.651,0.102c2.23-0.103,5.604-0.259,11.714,0.806c10.456,1.823,17.102,9.581,17.379,9.91  c0.646,0.766,0.772,1.844,0.321,2.738c-0.452,0.894-1.375,1.443-2.394,1.368c-0.015,0-2.661-0.128-8.67,0.86  c-3.5,0.576-5.5,1.66-7.434,2.708c-1.393,0.755-2.832,1.535-4.658,2.034c-2.605,0.71-5.539,0.886-7.469,0.913  c-0.423,1.363-1.19,3.218-2.574,5.268c-1.955,2.897-5.589,4.786-9.437,6.786c-1.674,0.87-3.404,1.769-4.874,2.712  c-3.347,2.146-7.393,9.834-8.669,12.615C6.322,182.729,5.432,183.294,4.461,183.294z M45.839,7.558  c3.33,1.03,7.152,2.489,9.721,4.323c3.693,2.638,5.416,5.364,5.119,8.102c-0.174,1.615-1.162,3.874-4.878,5.466  c-4.213,1.806-27.565,16.204-36.832,41.029c-8.438,22.61-5.123,46.51-3.875,55.507c0.113,0.82,0.211,1.525,0.283,2.103  c0.136,1.08,0.291,2.175,0.448,3.276c0.923,6.485,1.878,13.19-0.839,19.046c-0.842,1.815-1.857,3.636-2.932,5.563  c-2.618,4.694-5.326,9.547-5.909,14.968c-0.232,2.169-0.278,4.159-0.224,5.898c1.885-3.024,4.29-6.229,6.78-7.826  c1.661-1.066,3.494-2.019,5.268-2.94c3.123-1.624,6.354-3.302,7.598-5.146c1.963-2.908,2.247-5.23,2.25-5.253  c0.149-1.314,1.322-2.299,2.621-2.239c0.045,0.002,4.544,0.229,8-0.715c1.269-0.346,2.345-0.929,3.592-1.605  c2.082-1.129,4.674-2.534,9.006-3.246c1.326-0.218,2.504-0.386,3.541-0.516c-2.509-1.817-6.025-3.77-10.227-4.502  c-5.57-0.971-8.491-0.835-10.624-0.737c-1.528,0.072-2.852,0.132-4.318-0.308c-7.879-2.363-6.146-14.943-5.577-19.077  c1.86-13.515,8.125-32.274,19.655-40.669c11.421-8.315,26.219-11.237,26.843-11.357c1.213-0.233,2.402,0.446,2.822,1.598  c0.107,0.294,2.607,7.311,0.915,17.092c-0.766,4.423-2.069,8.062-3.279,10.736c3.749-1.438,9.185-4.645,14.637-11.791  c8.814-11.556,9.777-16.299,9.87-16.93c-0.099-0.819,0.231-1.513,0.863-2.058c0.649-0.559,1.555-0.612,2.376-0.36  c0.098,0.03,10.348,3.06,22.494,0.649c2.848-0.565,5.416-1.119,7.778-1.627c8.462-1.821,14.575-3.139,21.482-2.403  c4.766,0.507,10.555,1.906,15.206,3.029c3.472,0.839,6.752,1.631,8.041,1.665c1.624,0.016,3.176-1.235,3.688-2.066  c-2.057-1.75-9.316-5.946-15.565-9.204c-1.21-0.63-1.691-2.115-1.081-3.335c0.115-0.238,2.926-6.223-2.272-10.874  c-3.672-3.285-17.121-14.467-36.032-20.439c-7.541-2.381-12.107-2.817-16.524-3.238c-5.319-0.508-10.819-1.032-20.898-4.797  C68.958,6.414,60.254,3.429,51.39,5.847C49.155,6.456,47.325,7.034,45.839,7.558z M24.01,78.954c-0.182,0-0.365-0.02-0.55-0.061  c-1.347-0.303-2.194-1.64-1.892-2.987c0.096-0.425,2.404-10.517,8.141-19.709c5.717-9.157,19.839-21.286,20.438-21.798  c1.048-0.896,2.627-0.775,3.524,0.275c0.897,1.049,0.774,2.627-0.274,3.525c-0.141,0.12-14.138,12.142-19.445,20.646  c-5.291,8.478-7.482,18.062-7.504,18.157C26.186,78.164,25.154,78.954,24.01,78.954z M146.877,52.121  c-0.235,0-0.475-0.033-0.712-0.104l-1.422-0.421c-1.324-0.393-2.078-1.784-1.686-3.108s1.783-2.079,3.107-1.686l1.422,0.422  c1.324,0.393,2.078,1.784,1.686,3.107C148.95,51.418,147.955,52.121,146.877,52.121z" data-original="#000000" class="active-path" data-old_color="#315ef9" fill="#315ef9"/></g> </svg>
