<?xml version="1.0"?>
<svg xmlns="http://www.w3.org/2000/svg" xmlns:xlink="http://www.w3.org/1999/xlink" version="1.1" id="Capa_1" x="0px" y="0px" viewBox="0 0 511.999 511.999" style="enable-background:new 0 0 511.999 511.999;" xml:space="preserve" width="512px" height="512px"><g><g>
	<g>
		<path d="M331.02,140.702c-17.324,0-31.419,14.095-31.419,31.42s14.095,31.42,31.419,31.42c17.325,0,31.42-14.095,31.42-31.42    S348.344,140.702,331.02,140.702z M331.021,188.308c-8.926,0-16.186-7.261-16.186-16.186c0-8.925,7.26-16.186,16.186-16.186    c8.926,0,16.186,7.261,16.186,16.186S339.947,188.308,331.021,188.308z" data-original="#000000" class="active-path" data-old_color="#315ef9" fill="#315ef9"/>
	</g>
</g><g>
	<g>
		<path d="M450.117,63.474H89.736c-13.3,0-24.12-10.82-24.12-24.12c-0.001-13.301,10.819-24.121,24.12-24.121h84.43    c4.206,0,7.617-3.41,7.617-7.617c0-4.206-3.41-7.617-7.617-7.617h-84.43C68.035,0,50.382,17.654,50.382,39.353    c0,21.7,17.654,39.353,39.353,39.353h360.382c21.081,0,38.232,17.151,38.232,38.232c0,21.081-17.151,38.232-38.232,38.232h-36.898    v-38.061c0-4.206-3.409-7.617-7.617-7.617H189.792c-100.012,0-181.376,81.365-181.376,181.376s81.365,181.376,181.376,181.376    c0.108,0,0.212-0.011,0.318-0.016c13.549,23.73,39.082,39.772,68.307,39.772h79.369c4.208,0,7.617-3.41,7.617-7.617    c0-31.284-18.372-58.353-44.889-71.001c26.518-12.648,44.889-39.717,44.889-71.001c0-4.206-3.409-7.617-7.617-7.617h-79.369    c-30.729,0-57.379,17.732-70.303,43.492c-31.775-0.894-57.353-27.001-57.353-58.988c0-32.55,26.481-59.031,59.031-59.031h78.816    c4.207,0,7.617-3.41,7.617-7.617s-3.409-7.617-7.617-7.617h-71.199V124.727h200.576v30.445h-15.132    c-4.207,0-7.617,3.41-7.617,7.617s3.409,7.617,7.617,7.617h14.849c-3.91,52.818-48.133,94.599-101.932,94.599h-1.771    c-4.207,0-7.617,3.41-7.617,7.617s3.409,7.617,7.617,7.617h1.771c40.22,0,75.779-20.326,96.957-51.241h35.825    c4.207,0,7.617-3.41,7.617-7.617s-3.409-7.617-7.617-7.617h-26.983c1.616-3.34,3.075-6.769,4.375-10.274h34.793    c4.207,0,7.617-3.41,7.617-7.617s-3.409-7.617-7.617-7.617H410.43c1.288-5.802,2.144-11.763,2.535-17.85h37.152    c29.481,0,53.465-23.985,53.465-53.465C503.582,87.458,479.599,63.474,450.117,63.474z M258.418,369.998h71.298    c-3.774,31.373-30.555,55.768-62.928,55.768h-71.299C199.261,394.393,226.044,369.998,258.418,369.998z M266.787,440.999    c32.373,0,59.155,24.395,62.928,55.768h-71.298c-32.373,0-59.157-24.395-62.929-55.768H266.787z M24.087,302.867l91.629,41.403    c0.965,14.425,6.059,27.732,14.119,38.748l-60.43,22.235C43.647,378.156,26.921,342.404,24.087,302.867z M140.966,395.154    c11.333,9.912,25.682,16.453,41.482,18.011c-1.719,6.455-2.648,13.228-2.648,20.217c0,8.18,1.259,16.071,3.588,23.494    c-38.731-1.476-74.107-16.266-101.668-39.924L140.966,395.154z M182.175,265.391c-13.262,1.358-25.492,6.234-35.765,13.656    l-30.284-58.182c-1.943-3.731-6.54-5.181-10.273-3.24c-3.731,1.943-5.182,6.541-3.24,10.273l32.081,61.633    c-9.488,10.504-16.027,23.72-18.288,38.331l-92.677-41.877c1.291-44.498,20.166-84.658,49.9-113.775l16.107,30.945    c1.358,2.608,4.013,4.102,6.763,4.102c1.185,0,2.387-0.277,3.511-0.862c3.731-1.943,5.182-6.541,3.24-10.273l-17.889-34.368    c26.711-21.647,60.24-35.189,96.817-36.849V265.391z" data-original="#000000" class="active-path" data-old_color="#315ef9" fill="#315ef9"/>
	</g>
</g></g> </svg>
